<?xml version="1.0" encoding="utf-8"?>
<!DOCTYPE svg PUBLIC "-//W3C//DTD SVG 1.1//EN" "http://www.w3.org/Graphics/SVG/1.1/DTD/svg11.dtd">
<svg style="width:308px;height:308px;" version="1.1" id="图形" xmlns="http://www.w3.org/2000/svg" xmlns:xlink="http://www.w3.org/1999/xlink" x="0px" y="0px" width="1024px" height="1024px" viewBox="0 0 1024 1024" enable-background="new 0 0 1024 1024" xml:space="preserve">
  <path class="svgpath" data-index="path_0" fill="#272636" d="M508.298 56.163c-250.516 0-453.632 203.116-453.632 453.632 0 250.516 203.116 453.63 453.632 453.63 250.517 0 453.633-203.115 453.633-453.63C961.931 259.279 758.814 56.163 508.298 56.163zM508.298 901.622c-216.054 0-391.827-175.772-391.827-391.826 0-216.054 175.772-391.828 391.827-391.828 216.056 0 391.827 175.772 391.827 391.827C900.125 725.849 724.352 901.622 508.298 901.622zM487.298 527.598 281.482 527.598 281.482 585.4l264.619 0L546.101 208.924l-58.804 0L487.297 527.598z" />

</svg>
