<?xml version="1.0" encoding="utf-8"?>
<!DOCTYPE svg PUBLIC "-//W3C//DTD SVG 1.1//EN" "http://www.w3.org/Graphics/SVG/1.1/DTD/svg11.dtd">
<svg style="width:308px;height:308px;" version="1.1" id="图形" xmlns="http://www.w3.org/2000/svg" xmlns:xlink="http://www.w3.org/1999/xlink" x="0px" y="0px" width="1024px" height="1024px" viewBox="0 0 1024 1024" enable-background="new 0 0 1024 1024" xml:space="preserve">
  <path class="svgpath" data-index="path_0" fill="#272636" d="M853.333333 896 170.666667 896C123.541333 896 85.333333 857.792 85.333333 810.666667L85.333333 298.666667C85.333333 251.541333 123.541333 213.333333 170.666667 213.333333L316.117333 213.333333 384 128 640.490667 128 708.373333 213.333333 853.333333 213.333333C900.458667 213.333333 938.666667 251.541333 938.666667 298.666667L938.666667 810.666667C938.666667 857.792 900.458667 896 853.333333 896ZM512 341.333333C394.176 341.333333 298.666667 436.842667 298.666667 554.666667 298.666667 672.490667 394.176 768 512 768 629.824 768 725.333333 672.490667 725.333333 554.666667 725.333333 436.842667 629.824 341.333333 512 341.333333ZM512 682.666667C441.301333 682.666667 384 625.365333 384 554.666667 384 483.968 441.301333 426.666667 512 426.666667 582.698667 426.666667 640 483.968 640 554.666667 640 625.365333 582.698667 682.666667 512 682.666667Z" />

</svg>
