<?xml version="1.0" encoding="utf-8"?>
<!DOCTYPE svg PUBLIC "-//W3C//DTD SVG 1.1//EN" "http://www.w3.org/Graphics/SVG/1.1/DTD/svg11.dtd">
<svg style="width:308px;height:308px;" version="1.1" id="图形" xmlns="http://www.w3.org/2000/svg" xmlns:xlink="http://www.w3.org/1999/xlink" x="0px" y="0px" width="1024px" height="1024px" viewBox="0 0 1024 1024" enable-background="new 0 0 1024 1024" xml:space="preserve">
  <path class="svgpath" data-index="path_0" fill="#272636" d="M923.8 229.8l-113 113.4-110.2-20-19.8-110.2 113-113.4c-25.4-25.4-61.6-37-88.4-35.6-27 1.4-84.6 16.6-129.2 64-43.2 45.6-88.6 130.6-48.4 225 4.8 11.4 10.2 26.4-5.8 42.4-16.2 16-430 405.6-430 405.6-38.8 33.4-36 95.2-0.2 131.2 36.4 35.8 97.8 38 131.2-0.6 0 0 386.4-411.6 405.4-430.2 17-16.6 32.2-11 42.4-5.8 71.2 36.8 172.6 4.8 225.2-47.8 52.6-52.6 62.2-103.4 63.8-129.4C961.4 292.6 952.4 258.4 923.8 229.8zM182.6 886.4c-12.6 12.4-33 12.4-45.4 0-12.4-12.6-12.4-33 0-45.4 12.6-12.4 33-12.4 45.4 0C195 853.6 195 874 182.6 886.4z" />

</svg>
