<?xml version="1.0" encoding="utf-8"?>
<!DOCTYPE svg PUBLIC "-//W3C//DTD SVG 1.1//EN" "http://www.w3.org/Graphics/SVG/1.1/DTD/svg11.dtd">
<svg style="width:308px;height:308px;" version="1.1" id="图形" xmlns="http://www.w3.org/2000/svg" xmlns:xlink="http://www.w3.org/1999/xlink" x="0px" y="0px" width="1024px" height="1024px" viewBox="0 0 1024 1024" enable-background="new 0 0 1024 1024" xml:space="preserve">
  <path class="svgpath" data-index="path_0" fill="#272636" d="M716.775338 168.94069l-54.411237 0c-11.215436-10.990309-26.571169-17.806551-43.525306-17.806551l-9.912767 0c-5.076622-49.933249-46.77635-89.032756-98.039897-89.032756-51.265594 0-92.964298 39.099507-98.041944 89.032756l-7.686053 0c-16.954137 0-32.274054 6.816243-43.506886 17.806551l-54.429657 0c-49.177026 0-106.839307 39.856753-106.839307 89.033779l0 605.426833c0 49.177026 57.663304 89.032756 106.839307 89.032756l409.553747 0c49.15963 0 106.839307-39.85573 106.839307-89.032756L823.614645 257.973446C823.614645 208.79642 765.934968 168.94069 716.775338 168.94069zM510.887155 110.642936c27.891234 0 50.498114 22.605857 50.498114 50.507324 0 27.892257-22.606881 50.507324-50.498114 50.507324-27.89328 0-50.500161-22.615067-50.500161-50.507324C460.386994 133.248793 482.993874 110.642936 510.887155 110.642936zM770.196015 809.979602c0 49.177026-39.874149 89.033779-89.034802 89.033779l-338.325495 0c-49.177026 0-89.033779-39.856753-89.033779-89.033779L253.801938 293.587572c0-49.177026 39.856753-89.033779 89.033779-89.033779l0.904603 0c-0.417509 2.930749-0.904603 5.851265-0.904603 8.903787 0 34.412764 27.892257 62.323441 62.322417 62.323441l213.679637 0c34.43016 0 62.322417-27.909653 62.322417-62.323441 0-3.051499-0.48607-5.973038-0.903579-8.903787l0.903579 0c49.160653 0 89.034802 39.856753 89.034802 89.033779L770.194992 809.979602zM690.066023 614.106516 333.93193 614.106516c-14.745842 0-26.710338 11.963473-26.710338 26.710338s11.963473 26.710338 26.710338 26.710338l356.13307 0c14.745842 0 26.710338-11.963473 26.710338-26.710338S704.811866 614.106516 690.066023 614.106516zM690.066023 436.041004 333.93193 436.041004c-14.745842 0-26.710338 11.955286-26.710338 26.709315 0 14.746866 11.963473 26.710338 26.710338 26.710338l356.13307 0c14.745842 0 26.710338-11.963473 26.710338-26.710338C716.775338 447.995267 704.811866 436.041004 690.066023 436.041004zM690.066023 525.072737 333.93193 525.072737c-14.745842 0-26.710338 11.955286-26.710338 26.710338 0 14.746866 11.963473 26.711362 26.710338 26.711362l356.13307 0c14.745842 0 26.710338-11.963473 26.710338-26.711362C716.775338 537.028023 704.811866 525.072737 690.066023 525.072737zM690.066023 347.007225 333.93193 347.007225c-14.745842 0-26.710338 11.955286-26.710338 26.710338 0 14.745842 11.963473 26.710338 26.710338 26.710338l356.13307 0c14.745842 0 26.710338-11.964496 26.710338-26.710338C716.775338 358.962511 704.811866 347.007225 690.066023 347.007225zM476.454948 706.166211c-60.09775 30.777981-98.18009 123.097596-98.18009 123.097596l-23.474644-45.437865-48.359404 29.317723c20.536732 7.339152 49.855478 30.780027 74.756611 61.559031 17.597797-32.239262 71.817676-98.197486 98.18009-104.057961C469.117842 747.204883 474.995713 728.145805 476.454948 706.166211z" />

</svg>
