<?xml version="1.0" encoding="utf-8"?>
<!DOCTYPE svg PUBLIC "-//W3C//DTD SVG 1.1//EN" "http://www.w3.org/Graphics/SVG/1.1/DTD/svg11.dtd">
<svg style="width:308px;height:308px;" version="1.1" id="图形" xmlns="http://www.w3.org/2000/svg" xmlns:xlink="http://www.w3.org/1999/xlink" x="0px" y="0px" width="1024px" height="1024px" viewBox="0 0 1024 1024" enable-background="new 0 0 1024 1024" xml:space="preserve">
  <path class="svgpath" data-index="path_0" fill="#272636" d="M291.219129 181.958168c0-30.725792 24.907273-55.633065 55.632041-55.633065l330.297658 0c30.724769 0 55.632041 24.907273 55.632041 55.633065l0 660.08264c0 30.725792-24.907273 55.633065-55.632041 55.633065L346.851171 897.673873c-30.724769 0-55.632041-24.907273-55.632041-55.633065L291.219129 181.958168zM707.890994 208.568223l0-21.164019c0-20.037359-16.242939-36.281321-36.281321-36.281321L352.391351 151.122883c-20.038382 0-36.282345 16.243963-36.282345 36.281321l0 21.164019L707.890994 208.568223zM315.857273 815.561737l0 21.165042c0 20.037359 16.243963 36.281321 36.282345 36.281321l319.218322 0c20.038382 0 36.282345-16.243963 36.282345-36.281321l0-21.165042L315.857273 815.561737zM707.890994 233.984079 316.109006 233.984079l0 555.400462 391.781988 0L707.890994 233.984079z" />

</svg>
