<?xml version="1.0" encoding="utf-8"?>
<!DOCTYPE svg PUBLIC "-//W3C//DTD SVG 1.1//EN" "http://www.w3.org/Graphics/SVG/1.1/DTD/svg11.dtd">
<svg style="width:308px;height:308px;" version="1.1" id="图形" xmlns="http://www.w3.org/2000/svg" xmlns:xlink="http://www.w3.org/1999/xlink" x="0px" y="0px" width="1024px" height="1024px" viewBox="0 0 1024 1024" enable-background="new 0 0 1024 1024" xml:space="preserve">
  <path class="svgpath" data-index="path_0" fill="#272636" d="M928.807964 864.290555 800.977577 679.158091c-22.039969-35.263132-66.118883-44.078914-96.974635-22.039969l-83.750449 52.894697-8.815783 0-4.408403 4.408403c-8.815783 0-48.487318-8.815783-149.869333-149.869333-88.158852-132.237767-88.158852-185.133487-83.750449-202.765053 8.815783 0 8.815783-4.408403 8.815783-4.408403l88.158852-57.3031c30.855752-17.631566 44.078914-61.711504 22.039969-96.974635L369.000122 26.782993 369.000122 22.375613c0 0-22.039969-17.631566-57.3031-17.631566S241.169735 17.96721 201.4982 48.822962l-8.815783 4.408403c-74.934666 114.606201-92.566232 251.252371-92.566232 260.068154l0 4.40738 0 4.408403c30.855752 145.461953 101.382015 264.476557 154.277736 343.818603l44.078914 61.711504c57.3031 83.750449 136.64617 185.133487 255.659751 264.475534l4.408403 4.408403c4.408403 0 79.343069 26.447349 176.317705 26.447349 35.263132 0 66.118883-4.408403 96.974635-8.815783l8.815783-4.408403C950.84691 939.225221 928.807964 864.290555 928.807964 864.290555zM818.609143 965.673593c-26.447349 4.408403-52.894697 8.815783-83.750449 8.815783-79.343069 0-145.461953-17.631566-158.685115-22.039969-119.014604-83.750449-193.94927-185.133487-255.659751-268.883937l-13.224186-17.631566c-48.487318-74.934666-127.830387-198.35665-163.093519-348.227006 4.408403-26.447349 22.039969-141.05355 83.750449-233.620805 70.527286-52.894697 101.382015-35.263132 110.198821-30.855752l119.014604 176.317705c8.815783 13.224186 4.408403 26.447349-8.815783 35.263132l-83.750449 52.894697c-4.408403 4.408403-17.631566 13.224186-26.447349 30.855752-17.631566 48.487318 8.815783 127.830387 88.158852 246.843968C505.646292 710.012819 562.949392 762.90854 611.43671 762.90854c17.631566 0 30.855752-8.815783 35.263132-17.631566l79.343069-52.895721c13.224186-8.815783 26.447349-4.408403 35.263132 8.815783l123.421984 176.317705C884.728026 886.330524 884.728026 926.002059 818.609143 965.673593z" />

</svg>
