<?xml version="1.0" encoding="utf-8"?>
<!DOCTYPE svg PUBLIC "-//W3C//DTD SVG 1.1//EN" "http://www.w3.org/Graphics/SVG/1.1/DTD/svg11.dtd">
<svg style="width:308px;height:308px;" version="1.1" id="图形" xmlns="http://www.w3.org/2000/svg" xmlns:xlink="http://www.w3.org/1999/xlink" x="0px" y="0px" width="1024px" height="1024px" viewBox="0 0 1024 1024" enable-background="new 0 0 1024 1024" xml:space="preserve">
  <path class="svgpath" data-index="path_0" fill="#272636" d="M505.651854 275.421557l1.50847-0.083804c28.577134-1.005647 63.062444-31.677879 70.185776-55.017268 12.193469-39.63925-13.743842-77.97954-34.652918-108.777478-10.559293-15.587528-20.490056-30.337016-23.674605-41.98576l-2.095098-7.793764-13.366724 0.041902c-3.394058 0.335216-6.117686 1.50847-8.170881 3.477862-7.458548 2.849333-7.751862 9.595548-7.626156 9.595548-2.639823 15.503724-13.07341 30.0018-24.135527 45.379818-16.92839 23.465095-36.077584 50.030935-32.222604 87.281774C434.628038 238.715443 474.895818 275.421557 505.651854 275.421557zM494.00311 141.712415c4.525411-6.662411 8.883215-13.157214 12.570587-19.442508 22.166135 30.21131 38.885015 66.959326 31.510271 90.550127-3.771176 12.067763-13.743842 20.531958-30.337016 25.769703-2.556019-1.257059-5.112039-2.556019-7.668058-3.813078-14.749489-7.207136-27.487683-13.408626-31.049349-24.889762C462.409035 188.600704 479.169817 163.66904 494.00311 141.712415z" />
<path class="svgpath" data-index="path_1" fill="#272636" d="M881.680007 806.109829c-0.41902-9.386038-0.879941-18.64637-0.879941-27.194369l0-188.265488c0-9.134626 0.41902-19.06539 0.879941-28.996154 1.131353-26.230624 2.262706-50.952778-3.603568-67.462149-15.168508-42.991407-93.273754-57.992307-142.089533-67.420247C685.159833 416.924462 637.391603 412.315247 569.133317 407.706032L569.133317 329.05606l-8.087078-1.843686c-34.946231-7.961372-82.379245-7.961372-117.283575 0l-8.128979 1.843686 0 80.451755C383.549554 411.477208 333.644324 417.678697 279.465095 428.866519l-4.902529 1.005647c-48.103445 10.014567-114.015222 23.590801-128.345691 64.235699-6.662411 18.813978-5.237744 43.745642-3.85498 67.839267 0.502823 9.260332 1.047549 18.311155 1.047549 26.56584l0 188.30739c0 9.469842-0.377118 19.526311-0.754235 29.540879-1.005647 26.482036-1.969392 51.455602 3.561666 67.001228 14.79139 41.818152 93.064244 60.338817 159.562648 71.736149 65.744169 11.35543 134.086259 17.054096 203.098781 17.054096 69.096325 0 138.82118-5.740568 207.330878-17.095998 97.547753-16.132253 150.428022-39.597348 161.699648-71.736149C884.194124 855.805549 882.895163 830.538669 881.680007 806.109829zM313.698993 771.163598l9.63745 16.467469 8.715607-16.92839c12.780097-24.84786 45.715034-40.896309 83.929618-40.896309 38.13078 0 70.89811 16.048449 83.5525 40.854407l9.386038 18.436861 9.302234-18.478763c12.528685-24.931664 45.756936-41.022015 84.641951-41.022015 29.876095 0 66.707914 10.684999 80.451755 40.686799l7.961372 17.305508 10.349783-16.006547c16.299861-25.05737 54.514445-43.242819 91.011048-43.242819 17.934037 0 34.359604 4.399705 47.726328 12.8639l0 112.883869c-58.495131 46.469269-170.792373 57.321876-262.725264 61.595875-41.482936 1.885588-86.150421 1.885588-128.97422 0-93.022342-4.148294-206.534741-14.875194-264.736558-61.553973l0-116.487438c12.528685-6.201489 27.026762-9.511744 42.320976-9.511744C262.285293 728.088387 299.075211 746.190032 313.698993 771.163598zM840.40658 707.011703c-14.330469-6.327195-30.588428-9.595548-48.019642-9.595548-37.963172 0-76.638677 15.838939-98.5534 39.178329-18.017841-23.716507-50.910877-37.963172-89.921598-37.963172-39.094525 0-75.004501 14.372371-96.206891 37.627956-17.934037-23.339389-51.916523-37.753662-91.555774-37.753662-40.100172 0-74.501678 14.623783-92.519519 38.256486-22.627056-23.842213-60.548326-39.597348-98.050577-39.597348-14.79139 0-28.744742 2.430313-41.608642 7.081431l0-140.706768c81.331697 34.2758 199.66282 53.802111 328.176119 53.802111s246.886325-19.526311 328.218021-53.844013L840.364678 707.011703zM840.490384 510.910549c0.251412 6.788117-17.766429 15.964645-53.466896 27.278173l-4.315901 1.340863c-57.070464 18.227351-134.128161 30.043702-216.884524 33.605369l3.43596-1.340863 0-119.211065 21.369998 1.424667c75.884442 4.734921 135.762337 8.506097 202.721663 31.845487C825.573288 497.082904 839.400933 507.432687 840.490384 510.910549zM435.717489 562.952778l0.20951 5.489156 4.609215 2.975039c0.502823 0.293314 1.005647 0.628529 1.550372 0.921843-76.512972-4.357803-147.159669-15.838939-200.500859-32.76733-48.857681-15.461822-57.070464-23.758409-57.615189-27.361977C183.80293 509.108765 187.993125 492.473689 286.965545 471.899828l3.43596-0.712333c49.150994-10.391685 93.776577-14.288567 136.935592-17.975939L435.214666 452.541124C434.753744 481.453474 434.376627 525.869547 435.717489 562.952778zM530.834929 545.479663c-16.676978 3.100745-40.225878 3.142647-56.860954 0l-0.335216-185.458057c8.380391-0.293314 20.867174-0.586627 33.270153-0.586627 10.768803 0 18.478763 0.251412 23.926017 0.544725L530.834929 545.479663z" />

</svg>
