<?xml version="1.0" encoding="utf-8"?>
<!DOCTYPE svg PUBLIC "-//W3C//DTD SVG 1.1//EN" "http://www.w3.org/Graphics/SVG/1.1/DTD/svg11.dtd">
<svg style="width:308px;height:308px;" version="1.1" id="图形" xmlns="http://www.w3.org/2000/svg" xmlns:xlink="http://www.w3.org/1999/xlink" x="0px" y="0px" width="1190px" height="1024px" viewBox="0 0 1190 1024" enable-background="new 0 0 1190 1024" xml:space="preserve">
  <path class="svgpath" data-index="path_0" fill="#272636" d="M171.739235 589.446306C172.854668 589.446306 174.081642 589.520665 175.271434 589.595024 210.258795 607.25536 250.414324 611.97718 288.710798 602.607903 289.008247 602.607903 289.23133 602.607903 289.491598 602.682262 374.933636 580.820625 428.846146 496.53434 411.11079 409.087782 377.573488 381.946632 351.992931 345.361847 338.34749 303.386013 229.667302 233.822872 84.661235 311.602718 84.661235 442.400755 84.661235 495.827925 110.130249 543.306349 149.467793 573.384694 148.761352 573.533412 148.01773 573.607771 147.199749 573.756489 154.933407 579.705235 163.076053 584.910386 171.739235 589.446306ZM848.991929 304.166786C836.908091 341.272084 812.182696 381.351758 778.050501 409.050601 777.455603 411.764716 777.046614 414.55319 776.600441 417.267306 775.931181 418.010901 775.410645 418.605776 774.741388 419.312187 769.796311 452.699522 775.261924 485.71506 789.279176 514.789551 790.320244 515.458785 791.361315 516.165199 792.439564 516.760074 808.129965 547.879447 833.338712 573.161614 864.31052 589.074508 864.533606 589.446306 864.756693 589.743742 865.054142 590.078358L865.054142 589.483484C974.068957 644.806818 1104.462874 565.725683 1104.462874 442.363577 1104.462874 318.369415 972.804803 239.325461 863.604079 296.024441L863.604079 295.764183C858.584639 298.32958 853.751104 301.080873 848.991929 304.166786ZM828.914166 606.995106C770.800197 508.915164 643.3064 522.969075 643.3064 522.969075L534.328766 522.969075C534.328766 522.969075 432.824518 519.28829 374.636187 602.793802 373.743841 604.318168 372.739954 605.693817 371.736064 607.218183 370.880902 607.961775 370.100098 608.593831 369.282117 609.263064 367.088435 612.683591 364.931934 616.364379 362.738252 620.37978 363.147244 620.528501 363.519055 620.677219 363.816504 620.751578 359.131691 629.451617 354.595605 639.118329 350.17106 649.565812 349.762068 649.491453 349.39026 649.417094 348.981268 649.268376 307.821852 746.084207 270.640812 939.790227 270.826714 957.376205L272.499864 957.376205C272.834491 976.41219 280.568148 1016.194425 340.13218 1014.81878L857.357665 1014.81878C857.357665 1014.81878 933.578802 1016.640581 933.578802 947.635134 933.615983 947.635134 897.81064 694.144225 828.914166 606.995106ZM365.080659 226.163864C365.080659 351.070713 466.341439 452.327725 591.252942 452.327725 716.164446 452.327725 817.425226 351.070713 817.425226 226.163864 817.425226 101.257011 716.164446 0 591.252942 0 466.341439 0 365.080659 101.257011 365.080659 226.163864ZM1112.754249 719.909726C1070.405041 648.450425 977.489613 658.637649 977.489613 658.637649L899.92996 658.637649C951.388523 766.458659 978.010148 954.847988 978.010148 954.847988 978.010148 994.407147 952.875764 1010.691835 931.4223 1017.309815L1133.57563 1017.309815C1133.57563 1017.309815 1189.16129 1018.611104 1189.16129 968.381384 1189.16129 968.344206 1163.060198 783.449762 1112.754249 719.909726ZM211.113961 954.847988C211.113961 954.847988 237.735586 766.49584 289.194149 658.637649L211.634496 658.637649C175.011169 654.733784 106.709593 666.556918 74.585171 720.80204 32.012879 774.601005 6.692587 915.846527 0 957.376205L1.673147 957.376205C0.594898 964.365983 0 968.344206 0 968.344206 0 1018.611104 55.511298 1017.272637 55.511298 1017.272637L257.701809 1017.272637C236.322707 1010.691835 211.113961 994.407147 211.113961 954.847988Z" />

</svg>
