<?xml version="1.0" encoding="utf-8"?>
<!DOCTYPE svg PUBLIC "-//W3C//DTD SVG 1.1//EN" "http://www.w3.org/Graphics/SVG/1.1/DTD/svg11.dtd">
<svg style="width:308px;height:308px;" version="1.1" id="图形" xmlns="http://www.w3.org/2000/svg" xmlns:xlink="http://www.w3.org/1999/xlink" x="0px" y="0px" width="1024px" height="1024px" viewBox="0 0 1024 1024" enable-background="new 0 0 1024 1024" xml:space="preserve">
  <path class="svgpath" data-index="path_0" fill="#272636" d="M275.222662 315.081025l0 78.783587 118.375338 0c39.458446 0 39.458446-39.405124 39.458446-39.405124l78.916892 0 0 325.878775c-68.838992 24.421579-118.375338 89.341387-118.375338 166.445324 0 97.846282 79.503437 177.216413 177.483024 177.216413 98.139554 0 177.696313-79.370131 177.696313-177.216413 0-77.077276-49.589669-141.970423-118.428661-166.392002L630.348677 59.081025c0-32.499896-26.661112-59.081025-59.134347-59.081025C538.581129 0 512 26.581129 512 59.081025l0 98.459488-78.916892 0c0 0 0-39.378463-39.458446-39.378463L275.222662 118.16205l0 78.756926 78.916892 0 0 118.16205L275.222662 315.081025zM571.21433 905.83795c-32.633201 0-59.21433-26.394501-59.21433-59.054364 0-32.686524 26.581129-59.081025 59.21433-59.081025 32.633201 0 59.187669 26.421162 59.187669 59.081025C630.402 879.416788 603.820871 905.83795 571.21433 905.83795" />

</svg>
